<svg id="visual" viewBox="0 0 900 600" width="900" height="600" xmlns="http://www.w3.org/2000/svg" xmlns:xlink="http://www.w3.org/1999/xlink" version="1.1"><path d="M0 91L16.7 96C33.3 101 66.7 111 100 106C133.3 101 166.7 81 200 81C233.3 81 266.7 101 300 112C333.3 123 366.7 125 400 126C433.3 127 466.7 127 500 121C533.3 115 566.7 103 600 101C633.3 99 666.7 107 700 112C733.3 117 766.7 119 800 104C833.3 89 866.7 57 883.3 41L900 25L900 0L883.3 0C866.7 0 833.3 0 800 0C766.7 0 733.3 0 700 0C666.7 0 633.3 0 600 0C566.7 0 533.3 0 500 0C466.7 0 433.3 0 400 0C366.7 0 333.3 0 300 0C266.7 0 233.3 0 200 0C166.7 0 133.3 0 100 0C66.7 0 33.3 0 16.7 0L0 0Z" fill="#6198ff"></path><path d="M0 163L16.7 176C33.3 189 66.7 215 100 207C133.3 199 166.7 157 200 171C233.3 185 266.7 255 300 279C333.3 303 366.7 281 400 279C433.3 277 466.7 295 500 292C533.3 289 566.7 265 600 256C633.3 247 666.7 253 700 259C733.3 265 766.7 271 800 240C833.3 209 866.7 141 883.3 107L900 73L900 23L883.3 39C866.7 55 833.3 87 800 102C766.7 117 733.3 115 700 110C666.7 105 633.3 97 600 99C566.7 101 533.3 113 500 119C466.7 125 433.3 125 400 124C366.7 123 333.3 121 300 110C266.7 99 233.3 79 200 79C166.7 79 133.3 99 100 104C66.7 109 33.3 99 16.7 94L0 89Z" fill="#3c80ff"></path><path d="M0 385L16.7 390C33.3 395 66.7 405 100 403C133.3 401 166.7 387 200 379C233.3 371 266.7 369 300 391C333.3 413 366.7 459 400 462C433.3 465 466.7 425 500 404C533.3 383 566.7 381 600 384C633.3 387 666.7 395 700 411C733.3 427 766.7 451 800 452C833.3 453 866.7 431 883.3 420L900 409L900 71L883.3 105C866.7 139 833.3 207 800 238C766.7 269 733.3 263 700 257C666.7 251 633.3 245 600 254C566.7 263 533.3 287 500 290C466.7 293 433.3 275 400 277C366.7 279 333.3 301 300 277C266.7 253 233.3 183 200 169C166.7 155 133.3 197 100 205C66.7 213 33.3 187 16.7 174L0 161Z" fill="#0066ff"></path><path d="M0 535L16.7 544C33.3 553 66.7 571 100 567C133.3 563 166.7 537 200 517C233.3 497 266.7 483 300 494C333.3 505 366.7 541 400 550C433.3 559 466.7 541 500 539C533.3 537 566.7 551 600 560C633.3 569 666.7 573 700 567C733.3 561 766.7 545 800 526C833.3 507 866.7 485 883.3 474L900 463L900 407L883.3 418C866.7 429 833.3 451 800 450C766.7 449 733.3 425 700 409C666.7 393 633.3 385 600 382C566.7 379 533.3 381 500 402C466.7 423 433.3 463 400 460C366.7 457 333.3 411 300 389C266.7 367 233.3 369 200 377C166.7 385 133.3 399 100 401C66.7 403 33.3 393 16.7 388L0 383Z" fill="#0059dd"></path><path d="M0 601L16.7 601C33.3 601 66.7 601 100 601C133.3 601 166.7 601 200 601C233.3 601 266.7 601 300 601C333.3 601 366.7 601 400 601C433.3 601 466.7 601 500 601C533.3 601 566.7 601 600 601C633.3 601 666.7 601 700 601C733.3 601 766.7 601 800 601C833.3 601 866.7 601 883.3 601L900 601L900 461L883.3 472C866.7 483 833.3 505 800 524C766.7 543 733.3 559 700 565C666.7 571 633.3 567 600 558C566.7 549 533.3 535 500 537C466.7 539 433.3 557 400 548C366.7 539 333.3 503 300 492C266.7 481 233.3 495 200 515C166.7 535 133.3 561 100 565C66.7 569 33.3 551 16.7 542L0 533Z" fill="#004cbb"></path></svg>